<svg width="12" height="254" viewBox="0 0 12 254" fill="none" xmlns="http://www.w3.org/2000/svg">
<path d="M10 249.461L3.2793 251.523V251.576C4.64648 251.502 5.55859 251.465 6.01563 251.465H10V253.088H1.43359V250.615L7.98438 248.588V248.553L1.43359 246.402L1.43359 243.93H10V245.623H5.94531C5.75391 245.623 5.5332 245.621 5.2832 245.617C5.0332 245.609 4.36914 245.582 3.29102 245.535V245.588L10 247.797V249.461ZM6.71289 240.484C7.36133 240.484 7.85156 240.379 8.18359 240.168C8.51563 239.953 8.68164 239.605 8.68164 239.125C8.68164 238.648 8.51758 238.307 8.18945 238.1C7.85742 237.889 7.36523 237.783 6.71289 237.783C6.06445 237.783 5.57813 237.889 5.25391 238.1C4.92969 238.311 4.76758 238.656 4.76758 239.137C4.76758 239.613 4.92969 239.957 5.25391 240.168C5.57422 240.379 6.06055 240.484 6.71289 240.484ZM6.71289 235.955C7.7793 235.955 8.61328 236.236 9.21484 236.799C9.81641 237.361 10.1172 238.145 10.1172 239.148C10.1172 239.777 9.98047 240.332 9.70703 240.812C9.42969 241.293 9.0332 241.662 8.51758 241.92C8.00195 242.178 7.40039 242.307 6.71289 242.307C5.64258 242.307 4.81055 242.027 4.2168 241.469C3.62305 240.91 3.32617 240.125 3.32617 239.113C3.32617 238.484 3.46289 237.93 3.73633 237.449C4.00977 236.969 4.40234 236.6 4.91406 236.342C5.42578 236.084 6.02539 235.955 6.71289 235.955ZM10 228.432V230.219H6.17383C5.70117 230.219 5.34766 230.303 5.11328 230.471C4.875 230.639 4.75586 230.906 4.75586 231.273C4.75586 231.773 4.92383 232.135 5.25977 232.357C5.5918 232.58 6.14453 232.691 6.91797 232.691H10V234.479H3.44922V233.113L4.28711 232.873V232.773C3.9707 232.574 3.73242 232.301 3.57227 231.953C3.4082 231.602 3.32617 231.203 3.32617 230.758C3.32617 229.996 3.5332 229.418 3.94727 229.023C4.35742 228.629 4.95117 228.432 5.72852 228.432H10ZM7.51563 224.055H6.05078V220.908H7.51563V224.055ZM10 214.562V216.35H1.43359V211.439H2.92188V214.562H5.13086V211.656H6.61328V214.562H10ZM3.32617 206.248C3.32617 206.006 3.34375 205.805 3.37891 205.645L5.05469 205.779C5.01563 205.924 4.99609 206.1 4.99609 206.307C4.99609 206.877 5.14258 207.322 5.43555 207.643C5.72852 207.959 6.13867 208.117 6.66602 208.117H10V209.904H3.44922V208.551L4.55078 208.287V208.199C4.18359 207.996 3.88867 207.723 3.66602 207.379C3.43945 207.031 3.32617 206.654 3.32617 206.248ZM1.75586 204.531C1.17383 204.531 0.882813 204.207 0.882813 203.559C0.882813 202.91 1.17383 202.586 1.75586 202.586C2.0332 202.586 2.25 202.668 2.40625 202.832C2.55859 202.992 2.63477 203.234 2.63477 203.559C2.63477 204.207 2.3418 204.531 1.75586 204.531ZM10 202.668V204.455H3.44922V202.668H10ZM9.16211 201.039C8.83398 201.039 8.58594 200.951 8.41797 200.775C8.25 200.6 8.16602 200.344 8.16602 200.008C8.16602 199.684 8.25195 199.434 8.42383 199.258C8.5957 199.078 8.8418 198.988 9.16211 198.988C9.4707 198.988 9.71484 199.078 9.89453 199.258C10.0703 199.438 10.1582 199.688 10.1582 200.008C10.1582 200.336 10.0723 200.59 9.90039 200.77C9.72461 200.949 9.47852 201.039 9.16211 201.039ZM4.32227 201.039C3.99414 201.039 3.74609 200.951 3.57813 200.775C3.41016 200.6 3.32617 200.344 3.32617 200.008C3.32617 199.684 3.41211 199.434 3.58398 199.258C3.75586 199.078 4.00195 198.988 4.32227 198.988C4.63867 198.988 4.88477 199.08 5.06055 199.264C5.23242 199.443 5.31836 199.691 5.31836 200.008C5.31836 200.336 5.23242 200.59 5.06055 200.77C4.88867 200.949 4.64258 201.039 4.32227 201.039ZM1.32227 191.752C1.32227 190.932 1.50977 190.271 1.88477 189.771C2.25586 189.268 2.75781 189.016 3.39063 189.016C3.82813 189.016 4.21875 189.137 4.5625 189.379C4.90234 189.621 5.20703 190.012 5.47656 190.551C5.82031 189.91 6.17969 189.451 6.55469 189.174C6.92578 188.893 7.33398 188.752 7.7793 188.752C8.48242 188.752 9.04883 189.027 9.47852 189.578C9.9043 190.129 10.1172 190.854 10.1172 191.752C10.1172 192.689 9.91797 193.426 9.51953 193.961C9.12109 194.496 8.55664 194.764 7.82617 194.764C7.33789 194.764 6.9043 194.635 6.52539 194.377C6.14648 194.115 5.8125 193.697 5.52344 193.123C5.21484 193.611 4.88477 193.963 4.5332 194.178C4.18164 194.393 3.79688 194.5 3.37891 194.5C2.76563 194.5 2.26953 194.246 1.89063 193.738C1.51172 193.23 1.32227 192.568 1.32227 191.752ZM7.7207 193.088C8.05664 193.088 8.31836 192.971 8.50586 192.736C8.69336 192.502 8.78711 192.182 8.78711 191.775C8.78711 191.326 8.69141 190.99 8.5 190.768C8.30469 190.545 8.04883 190.434 7.73242 190.434C7.4707 190.434 7.22656 190.545 7 190.768C6.76953 190.986 6.52539 191.344 6.26758 191.84C6.65039 192.672 7.13477 193.088 7.7207 193.088ZM2.64648 191.764C2.64648 192.072 2.72656 192.322 2.88672 192.514C3.04297 192.701 3.25391 192.795 3.51953 192.795C3.75391 192.795 3.96484 192.721 4.15234 192.572C4.33594 192.42 4.52539 192.146 4.7207 191.752C4.54102 191.369 4.35742 191.102 4.16992 190.949C3.98242 190.797 3.76563 190.721 3.51953 190.721C3.25 190.721 3.03711 190.818 2.88086 191.014C2.72461 191.209 2.64648 191.459 2.64648 191.764ZM5.46484 185.436V184.838C5.46484 184.279 5.35547 183.861 5.13672 183.584C4.91406 183.307 4.5918 183.168 4.16992 183.168C3.74414 183.168 3.42969 183.285 3.22656 183.52C3.02344 183.75 2.92188 184.113 2.92188 184.609V185.436H5.46484ZM4.10547 181.334C5.02734 181.334 5.73242 181.623 6.2207 182.201C6.70898 182.775 6.95313 183.594 6.95313 184.656V185.436H10V187.252H1.43359L1.43359 184.516C1.43359 183.477 1.6582 182.688 2.10742 182.148C2.55273 181.605 3.21875 181.334 4.10547 181.334ZM10 176.09L3.2793 178.152V178.205C4.64648 178.131 5.55859 178.094 6.01563 178.094H10V179.717H1.43359V177.244L7.98438 175.217V175.182L1.43359 173.031L1.43359 170.559H10V172.252H5.94531C5.75391 172.252 5.5332 172.25 5.2832 172.246C5.0332 172.238 4.36914 172.211 3.29102 172.164V172.217L10 174.426V176.09ZM7.51563 166H6.05078L6.05078 162.854H7.51563L7.51563 166ZM10 154.416V156.227H5.04297L4.22852 156.209L3.33789 156.18C3.63867 156.48 3.83594 156.689 3.92969 156.807L4.7207 157.791L3.63086 158.664L1.43359 155.904V154.416H10ZM5.7168 146.096C7.21289 146.096 8.32031 146.342 9.03906 146.834C9.75781 147.322 10.1172 148.076 10.1172 149.096C10.1172 150.084 9.74609 150.83 9.00391 151.334C8.26172 151.834 7.16602 152.084 5.7168 152.084C4.20508 152.084 3.0918 151.84 2.37695 151.352C1.6582 150.863 1.29883 150.111 1.29883 149.096C1.29883 148.107 1.67383 147.361 2.42383 146.857C3.17383 146.35 4.27148 146.096 5.7168 146.096ZM5.7168 150.285C6.76758 150.285 7.52148 150.195 7.97852 150.016C8.43164 149.832 8.6582 149.525 8.6582 149.096C8.6582 148.674 8.42773 148.369 7.9668 148.182C7.50586 147.994 6.75586 147.9 5.7168 147.9C4.66602 147.9 3.91211 147.996 3.45508 148.188C2.99414 148.375 2.76367 148.678 2.76367 149.096C2.76367 149.521 2.99414 149.826 3.45508 150.01C3.91211 150.193 4.66602 150.285 5.7168 150.285ZM5.46484 142.768V142.17C5.46484 141.611 5.35547 141.193 5.13672 140.916C4.91406 140.639 4.5918 140.5 4.16992 140.5C3.74414 140.5 3.42969 140.617 3.22656 140.852C3.02344 141.082 2.92188 141.445 2.92188 141.941L2.92188 142.768H5.46484ZM4.10547 138.666C5.02734 138.666 5.73242 138.955 6.2207 139.533C6.70898 140.107 6.95313 140.926 6.95313 141.988V142.768H10V144.584H1.43359L1.43359 141.848C1.43359 140.809 1.6582 140.02 2.10742 139.48C2.55273 138.938 3.21875 138.666 4.10547 138.666ZM10 133.422L3.2793 135.484V135.537C4.64648 135.463 5.55859 135.426 6.01563 135.426H10V137.049H1.43359V134.576L7.98438 132.549V132.514L1.43359 130.363V127.891H10V129.584H5.94531C5.75391 129.584 5.5332 129.582 5.2832 129.578C5.0332 129.57 4.36914 129.543 3.29102 129.496V129.549L10 131.758V133.422ZM8.74023 124.117C9.5293 124.32 10.4648 124.664 11.5469 125.148V126.438C10.5078 126.184 9.52734 125.986 8.60547 125.846V124.205L8.74023 124.117ZM7.62109 114.074C8.39453 114.074 9.00391 114.354 9.44922 114.912C9.89453 115.467 10.1172 116.24 10.1172 117.232C10.1172 118.146 9.94531 118.955 9.60156 119.658H7.91406C8.17188 119.08 8.35352 118.592 8.45898 118.193C8.56445 117.791 8.61719 117.424 8.61719 117.092C8.61719 116.693 8.54102 116.389 8.38867 116.178C8.23633 115.963 8.00977 115.855 7.70898 115.855C7.54102 115.855 7.39258 115.902 7.26367 115.996C7.13086 116.09 7.00391 116.229 6.88281 116.412C6.76172 116.592 6.56836 116.961 6.30273 117.52C6.05664 118.043 5.82031 118.436 5.59375 118.697C5.36719 118.959 5.10352 119.168 4.80273 119.324C4.50195 119.48 4.15039 119.559 3.74805 119.559C2.99023 119.559 2.39453 119.303 1.96094 118.791C1.52734 118.275 1.31055 117.564 1.31055 116.658C1.31055 116.213 1.36328 115.789 1.46875 115.387C1.57422 114.98 1.72266 114.557 1.91406 114.115L3.32617 114.701C3.13867 115.158 3.00781 115.537 2.93359 115.838C2.85938 116.135 2.82227 116.428 2.82227 116.717C2.82227 117.061 2.90234 117.324 3.0625 117.508C3.22266 117.691 3.43164 117.783 3.68945 117.783C3.84961 117.783 3.99023 117.746 4.11133 117.672C4.22852 117.598 4.34375 117.48 4.45703 117.32C4.56641 117.156 4.76563 116.771 5.05469 116.166C5.4375 115.365 5.82227 114.816 6.20898 114.52C6.5918 114.223 7.0625 114.074 7.62109 114.074ZM10 108.502L9.10938 108.848V108.895C9.48828 109.195 9.75195 109.506 9.90039 109.826C10.0449 110.143 10.1172 110.557 10.1172 111.068C10.1172 111.697 9.9375 112.193 9.57813 112.557C9.21875 112.916 8.70703 113.096 8.04297 113.096C7.34766 113.096 6.83594 112.854 6.50781 112.369C6.17578 111.881 5.99219 111.146 5.95703 110.166L5.92188 109.029H5.63477C4.9707 109.029 4.63867 109.369 4.63867 110.049C4.63867 110.572 4.79688 111.188 5.11328 111.895L3.90625 112.486C3.51172 111.732 3.31445 110.896 3.31445 109.979C3.31445 109.1 3.50586 108.426 3.88867 107.957C4.27148 107.488 4.85352 107.254 5.63477 107.254H10V108.502ZM6.96484 109.029L6.98828 109.721C7.00391 110.24 7.09766 110.627 7.26953 110.881C7.44141 111.135 7.70313 111.262 8.05469 111.262C8.55859 111.262 8.81055 110.973 8.81055 110.395C8.81055 109.98 8.69141 109.65 8.45313 109.404C8.21484 109.154 7.89844 109.029 7.50391 109.029H6.96484ZM8.69336 102.648C8.69336 102.336 8.625 101.961 8.48828 101.523H9.81836C10.0176 101.969 10.1172 102.516 10.1172 103.164C10.1172 103.879 9.9375 104.4 9.57813 104.729C9.21484 105.053 8.67188 105.215 7.94922 105.215H4.79102V106.07H4.03516L3.4375 105.086L2.05469 104.57V103.428H3.44922V101.594H4.79102V103.428H7.94922C8.20313 103.428 8.39063 103.357 8.51172 103.217C8.63281 103.072 8.69336 102.883 8.69336 102.648ZM7.51563 97.6562H6.05078V94.5098H7.51563V97.6562ZM7.62109 84.8945C8.39453 84.8945 9.00391 85.1738 9.44922 85.7324C9.89453 86.2871 10.1172 87.0605 10.1172 88.0527C10.1172 88.9668 9.94531 89.7754 9.60156 90.4785H7.91406C8.17188 89.9004 8.35352 89.4121 8.45898 89.0137C8.56445 88.6113 8.61719 88.2441 8.61719 87.9121C8.61719 87.5137 8.54102 87.209 8.38867 86.998C8.23633 86.7832 8.00977 86.6758 7.70898 86.6758C7.54102 86.6758 7.39258 86.7227 7.26367 86.8164C7.13086 86.9102 7.00391 87.0488 6.88281 87.2324C6.76172 87.4121 6.56836 87.7812 6.30273 88.3398C6.05664 88.8633 5.82031 89.2559 5.59375 89.5176C5.36719 89.7793 5.10352 89.9883 4.80273 90.1445C4.50195 90.3008 4.15039 90.3789 3.74805 90.3789C2.99023 90.3789 2.39453 90.123 1.96094 89.6113C1.52734 89.0957 1.31055 88.3848 1.31055 87.4785C1.31055 87.0332 1.36328 86.6094 1.46875 86.207C1.57422 85.8008 1.72266 85.377 1.91406 84.9355L3.32617 85.5215C3.13867 85.9785 3.00781 86.3574 2.93359 86.6582C2.85938 86.9551 2.82227 87.248 2.82227 87.5371C2.82227 87.8809 2.90234 88.1445 3.0625 88.3281C3.22266 88.5117 3.43164 88.6035 3.68945 88.6035C3.84961 88.6035 3.99023 88.5664 4.11133 88.4922C4.22852 88.418 4.34375 88.3008 4.45703 88.1406C4.56641 87.9766 4.76563 87.5918 5.05469 86.9863C5.4375 86.1855 5.82227 85.6367 6.20898 85.3398C6.5918 85.043 7.0625 84.8945 7.62109 84.8945ZM10 78.8418L9.16211 79.082V79.1758C9.4668 79.3672 9.70313 79.6387 9.87109 79.9902C10.0352 80.3418 10.1172 80.7422 10.1172 81.1914C10.1172 81.9609 9.91211 82.541 9.50195 82.9316C9.08789 83.3223 8.49414 83.5176 7.7207 83.5176H3.44922L3.44922 81.7305H7.27539C7.74805 81.7305 8.10352 81.6465 8.3418 81.4785C8.57617 81.3105 8.69336 81.043 8.69336 80.6758C8.69336 80.1758 8.52734 79.8145 8.19531 79.5918C7.85938 79.3691 7.30469 79.2578 6.53125 79.2578H3.44922V77.4707H10V78.8418ZM10 69.5488V71.3359H6.17383C5.70117 71.3359 5.34766 71.4199 5.11328 71.5879C4.875 71.7559 4.75586 72.0234 4.75586 72.3906C4.75586 72.8906 4.92383 73.252 5.25977 73.4746C5.5918 73.6973 6.14453 73.8086 6.91797 73.8086H10V75.5957H3.44922V74.2305L4.28711 73.9902V73.8906C3.9707 73.6914 3.73242 73.418 3.57227 73.0703C3.4082 72.7188 3.32617 72.3203 3.32617 71.875C3.32617 71.1133 3.5332 70.5352 3.94727 70.1406C4.35742 69.7461 4.95117 69.5488 5.72852 69.5488H10ZM9.16211 67.9609C8.83398 67.9609 8.58594 67.873 8.41797 67.6973C8.25 67.5215 8.16602 67.2656 8.16602 66.9297C8.16602 66.6055 8.25195 66.3555 8.42383 66.1797C8.5957 66 8.8418 65.9102 9.16211 65.9102C9.4707 65.9102 9.71484 66 9.89453 66.1797C10.0703 66.3594 10.1582 66.6094 10.1582 66.9297C10.1582 67.2578 10.0723 67.5117 9.90039 67.6914C9.72461 67.8711 9.47852 67.9609 9.16211 67.9609ZM4.32227 67.9609C3.99414 67.9609 3.74609 67.873 3.57813 67.6973C3.41016 67.5215 3.32617 67.2656 3.32617 66.9297C3.32617 66.6055 3.41211 66.3555 3.58398 66.1797C3.75586 66 4.00195 65.9102 4.32227 65.9102C4.63867 65.9102 4.88477 66.002 5.06055 66.1855C5.23242 66.3652 5.31836 66.6133 5.31836 66.9297C5.31836 67.2578 5.23242 67.5117 5.06055 67.6914C4.88867 67.8711 4.64258 67.9609 4.32227 67.9609ZM1.32227 58.6738C1.32227 57.8535 1.50977 57.1934 1.88477 56.6934C2.25586 56.1895 2.75781 55.9375 3.39063 55.9375C3.82813 55.9375 4.21875 56.0586 4.5625 56.3008C4.90234 56.543 5.20703 56.9336 5.47656 57.4727C5.82031 56.832 6.17969 56.373 6.55469 56.0957C6.92578 55.8145 7.33398 55.6738 7.7793 55.6738C8.48242 55.6738 9.04883 55.9492 9.47852 56.5C9.9043 57.0508 10.1172 57.7754 10.1172 58.6738C10.1172 59.6113 9.91797 60.3477 9.51953 60.8828C9.12109 61.418 8.55664 61.6855 7.82617 61.6855C7.33789 61.6855 6.9043 61.5566 6.52539 61.2988C6.14648 61.0371 5.8125 60.6191 5.52344 60.0449C5.21484 60.5332 4.88477 60.8848 4.5332 61.0996C4.18164 61.3145 3.79688 61.4219 3.37891 61.4219C2.76563 61.4219 2.26953 61.168 1.89063 60.6602C1.51172 60.1523 1.32227 59.4902 1.32227 58.6738ZM7.7207 60.0098C8.05664 60.0098 8.31836 59.8926 8.50586 59.6582C8.69336 59.4238 8.78711 59.1035 8.78711 58.6973C8.78711 58.248 8.69141 57.9121 8.5 57.6895C8.30469 57.4668 8.04883 57.3555 7.73242 57.3555C7.4707 57.3555 7.22656 57.4668 7 57.6895C6.76953 57.9082 6.52539 58.2656 6.26758 58.7617C6.65039 59.5938 7.13477 60.0098 7.7207 60.0098ZM2.64648 58.6855C2.64648 58.9941 2.72656 59.2441 2.88672 59.4355C3.04297 59.623 3.25391 59.7168 3.51953 59.7168C3.75391 59.7168 3.96484 59.6426 4.15234 59.4941C4.33594 59.3418 4.52539 59.0684 4.7207 58.6738C4.54102 58.291 4.35742 58.0234 4.16992 57.8711C3.98242 57.7188 3.76563 57.6426 3.51953 57.6426C3.25 57.6426 3.03711 57.7402 2.88086 57.9355C2.72461 58.1309 2.64648 58.3809 2.64648 58.6855ZM5.46484 52.3574V51.7598C5.46484 51.2012 5.35547 50.7832 5.13672 50.5059C4.91406 50.2285 4.5918 50.0898 4.16992 50.0898C3.74414 50.0898 3.42969 50.207 3.22656 50.4414C3.02344 50.6719 2.92188 51.0352 2.92188 51.5312V52.3574H5.46484ZM4.10547 48.2559C5.02734 48.2559 5.73242 48.5449 6.2207 49.123C6.70898 49.6973 6.95313 50.5156 6.95313 51.5781V52.3574H10V54.1738H1.43359L1.43359 51.4375C1.43359 50.3984 1.6582 49.6094 2.10742 49.0703C2.55273 48.5273 3.21875 48.2559 4.10547 48.2559ZM10 43.0117L3.2793 45.0742V45.127C4.64648 45.0527 5.55859 45.0156 6.01563 45.0156H10L10 46.6387H1.43359V44.166L7.98438 42.1387V42.1035L1.43359 39.9531L1.43359 37.4805H10V39.1738H5.94531C5.75391 39.1738 5.5332 39.1719 5.2832 39.168C5.0332 39.1602 4.36914 39.1328 3.29102 39.0859V39.1387L10 41.3477V43.0117ZM7.51563 32.9219H6.05078V29.7754H7.51563V32.9219ZM3.34961 20.1602C3.88477 20.1602 4.33984 20.3223 4.71484 20.6465C5.08984 20.9707 5.34766 21.4258 5.48828 22.0117H5.52344C5.60938 21.3203 5.82031 20.7969 6.15625 20.4414C6.48828 20.0859 6.9375 19.9082 7.50391 19.9082C8.32813 19.9082 8.9707 20.207 9.43164 20.8047C9.88867 21.4023 10.1172 22.2559 10.1172 23.3652C10.1172 24.2949 9.96289 25.1191 9.6543 25.8379H8.11328C8.28125 25.5059 8.41797 25.1406 8.52344 24.7422C8.62891 24.3438 8.68164 23.9492 8.68164 23.5586C8.68164 22.9609 8.58008 22.5195 8.37695 22.2344C8.17383 21.9492 7.84766 21.8066 7.39844 21.8066C6.99609 21.8066 6.71094 21.9707 6.54297 22.2988C6.375 22.627 6.29102 23.1504 6.29102 23.8691V24.5195H4.90234L4.90234 23.8574C4.90234 23.1934 4.81641 22.709 4.64453 22.4043C4.46875 22.0957 4.16992 21.9414 3.74805 21.9414C3.09961 21.9414 2.77539 22.3477 2.77539 23.1602C2.77539 23.4414 2.82227 23.7285 2.91602 24.0215C3.00977 24.3105 3.17188 24.6328 3.40234 24.9883L2.1543 25.8262C1.5918 25.0449 1.31055 24.1133 1.31055 23.0312C1.31055 22.1445 1.49023 21.4453 1.84961 20.9336C2.20898 20.418 2.70898 20.1602 3.34961 20.1602ZM10 13.1172L7.96094 13.7383L7.96094 16.8613L10 17.4824V19.4395L1.39844 16.416V14.1953L10 11.1602V13.1172ZM6.4375 14.1719C4.58984 14.7461 3.54492 15.0703 3.30273 15.1445C3.06055 15.2148 2.86914 15.2656 2.72852 15.2969C3.22852 15.4258 4.46484 15.7949 6.4375 16.4043V14.1719ZM10 6.44922L3.2793 8.51172V8.56445C4.64648 8.49023 5.55859 8.45312 6.01563 8.45312H10V10.0762H1.43359L1.43359 7.60352L7.98438 5.57617V5.54102L1.43359 3.39062V0.917969H10V2.61133H5.94531C5.75391 2.61133 5.5332 2.60938 5.2832 2.60547C5.0332 2.59766 4.36914 2.57031 3.29102 2.52344V2.57617L10 4.78516V6.44922Z" fill="white"/>
</svg>
